<?xml version="1.0" standalone="no"?>
<!DOCTYPE svg PUBLIC "-//W3C//DTD SVG 1.1//EN" "http://www.w3.org/Graphics/SVG/1.1/DTD/svg11.dtd" >
<svg xmlns="http://www.w3.org/2000/svg">
<metadata>
<json>
<![CDATA[
{
	"fontFamily": "icomoon",
	"majorVersion": 1,
	"minorVersion": 0,
	"description": "Aleqtisadiah V2 Icomoon Icons\nFont generated by IcoMoon.",
	"copyright": "SRPC",
	"designer": "Ali Hellani",
	"version": "Version 1.0",
	"fontId": "icomoon",
	"psName": "icomoon",
	"subFamily": "Regular",
	"fullName": "icomoon"
}
]]>
</json>
</metadata>
<defs>
<font id="icomoon" horiz-adv-x="1024">
<font-face units-per-em="1024" ascent="832" descent="-192" />
<missing-glyph horiz-adv-x="1024" />
<glyph unicode="&#x20;" horiz-adv-x="512" d="" />
<glyph unicode="&#xe900;" glyph-name="youtube" data-tags="youtube" horiz-adv-x="878" d="M554.857 121.143v-120.571q0-38.286-22.286-38.286-13.143 0-25.714 12.571v172q12.571 12.571 25.714 12.571 22.286 0 22.286-38.286zM748 120.571v-26.286h-51.429v26.286q0 38.857 25.714 38.857t25.714-38.857zM196 245.143h61.143v53.714h-178.286v-53.714h60v-325.143h57.143v325.143zM360.571-80h50.857v282.286h-50.857v-216q-17.143-24-32.571-24-10.286 0-12 12-0.571 1.714-0.571 20v208h-50.857v-223.429q0-28 4.571-41.714 6.857-21.143 33.143-21.143 27.429 0 58.286 34.857v-30.857zM605.714 4.571v112.571q0 41.714-5.143 56.571-9.714 32-40.571 32-28.571 0-53.143-30.857v124h-50.857v-378.857h50.857v27.429q25.714-31.429 53.143-31.429 30.857 0 40.571 31.429 5.143 15.429 5.143 57.143zM798.857 10.286v7.429h-52q0-29.143-1.143-34.857-4-20.571-22.857-20.571-26.286 0-26.286 39.429v49.714h102.286v58.857q0 45.143-15.429 66.286-22.286 29.143-60.571 29.143-38.857 0-61.143-29.143-16-21.143-16-66.286v-98.857q0-45.143 16.571-66.286 22.286-29.143 61.714-29.143 41.143 0 61.714 30.286 10.286 15.429 12 30.857 1.143 5.143 1.143 33.143zM451.429 532v120q0 39.429-24.571 39.429t-24.571-39.429v-120q0-40 24.571-40t24.571 40zM862.286 102.857q0-133.714-14.857-200-8-33.714-33.143-56.571t-58.286-26.286q-105.143-12-317.143-12t-317.143 12q-33.143 3.429-58.571 26.286t-32.857 56.571q-14.857 64-14.857 200 0 133.714 14.857 200 8 33.714 33.143 56.571t58.857 26.857q104.571 11.429 316.571 11.429t317.143-11.429q33.143-4 58.571-26.857t32.857-56.571q14.857-64 14.857-200zM292 832h58.286l-69.143-228v-154.857h-57.143v154.857q-8 42.286-34.857 121.143-21.143 58.857-37.143 106.857h60.571l40.571-150.286zM503.429 641.714v-100q0-46.286-16-67.429-21.143-29.143-60.571-29.143-38.286 0-60 29.143-16 21.714-16 67.429v100q0 45.714 16 66.857 21.714 29.143 60 29.143 39.429 0 60.571-29.143 16-21.143 16-66.857zM694.857 734.286v-285.143h-52v31.429q-30.286-35.429-58.857-35.429-26.286 0-33.714 21.143-4.571 13.714-4.571 42.857v225.143h52v-209.714q0-18.857 0.571-20 1.714-12.571 12-12.571 15.429 0 32.571 24.571v217.714h52z" />
<glyph unicode="&#xe901;" glyph-name="arrow-right" data-tags="arrow-right" d="M352 832l-96-96 416-416-416-416 96-96 512 511.998-512 512.002z" />
<glyph unicode="&#xe902;" glyph-name="cross" data-tags="cross" d="M1014.662 9.34c-0.004 0.004-0.008 0.008-0.012 0.010l-310.644 310.65 310.644 310.65c0.004 0.004 0.008 0.006 0.012 0.010 3.344 3.346 5.762 7.254 7.312 11.416 4.246 11.376 1.824 24.682-7.324 33.83l-146.746 146.746c-9.148 9.146-22.45 11.566-33.828 7.32-4.16-1.55-8.070-3.968-11.418-7.31 0-0.004-0.004-0.006-0.008-0.010l-310.648-310.652-310.648 310.65c-0.004 0.004-0.006 0.006-0.010 0.010-3.346 3.342-7.254 5.76-11.414 7.31-11.38 4.248-24.682 1.826-33.83-7.32l-146.748-146.748c-9.148-9.148-11.568-22.452-7.322-33.828 1.552-4.16 3.97-8.072 7.312-11.416 0.004-0.002 0.006-0.006 0.010-0.010l310.65-310.648-310.65-310.652c-0.002-0.004-0.006-0.006-0.008-0.010-3.342-3.346-5.76-7.254-7.314-11.414-4.248-11.376-1.826-24.682 7.322-33.83l146.748-146.746c9.15-9.148 22.452-11.568 33.83-7.322 4.16 1.552 8.070 3.97 11.416 7.312 0.002 0.004 0.006 0.006 0.010 0.010l310.648 310.65 310.648-310.65c0.004-0.002 0.008-0.006 0.012-0.008 3.348-3.344 7.254-5.762 11.414-7.314 11.378-4.246 24.684-1.826 33.828 7.322l146.746 146.748c9.148 9.148 11.57 22.454 7.324 33.83-1.552 4.16-3.97 8.068-7.314 11.414z" />
<glyph unicode="&#xe903;" glyph-name="arrow-left" data-tags="arrow-left" d="M672-192l96 96-416 416 416 416-96 96-512-511.998 512-512.002z" />
<glyph unicode="&#xe904;" glyph-name="arrow-down" data-tags="arrow-down" d="M1024 480l-96 96-416-416-416 416-96-96 511.998-512 512.002 512z" />
<glyph unicode="&#xe905;" glyph-name="arrow-up" data-tags="arrow-up" d="M0 160l96-96 416 416 416-416 96 96-511.998 512-512.002-512z" />
<glyph unicode="&#xe906;" glyph-name="comment" data-tags="comment" d="M836 768c103.4 0 188-84.6 188-188v-328c0-103.4-84.6-188-188-188h-644l-192-192v708c0 103.4 84.6 188 188 188h648z" />
<glyph unicode="&#xe907;" glyph-name="hamburger" data-tags="hamburger" d="M64 640h896v-128h-896v128zM64 384h896v-128h-896v128zM64 128h896v-128h-896v128z" />
<glyph unicode="&#xe908;" glyph-name="eye" data-tags="eye" d="M512 608c-256 0-511.998-223.998-512-288v0c0.002-64.002 256-288 512-288s511.994 223.998 512 288v0c-0.006 64.002-256 288-512 288zM512 128c-106.042 0-192 85.96-192 192s85.958 192 192 192c106.040 0 192-85.96 192-192s-85.96-192-192-192zM384 320c0 70.692 57.308 128 128 128s128-57.308 128-128c0-70.692-57.308-128-128-128s-128 57.308-128 128z" />
<glyph unicode="&#xe909;" glyph-name="at-sign" data-tags="at-sign" d="M874.040 682.040c-96.706 96.702-225.28 149.96-362.040 149.96s-265.334-53.258-362.040-149.96c-96.702-96.706-149.96-225.28-149.96-362.040s53.258-265.334 149.96-362.040c96.706-96.702 225.28-149.96 362.040-149.96 76.76 0 150.6 16.59 219.466 49.306 31.928 15.168 45.512 53.346 30.346 85.272s-53.346 45.508-85.272 30.346c-51.572-24.502-106.93-36.924-164.54-36.924-211.738 0-384 172.262-384 384s172.262 384 384 384 384-172.262 384-384v-64c0-35.29-28.71-64-64-64s-64 28.71-64 64v256c0 35.346-28.654 64-64 64-25.982 0-48.332-15.494-58.36-37.736-38.926 23.92-84.696 37.736-133.64 37.736-141.16 0-256-114.84-256-256 0-141.158 114.84-256 256-256 66.908 0 127.892 25.812 173.548 67.99 35.246-41.56 87.818-67.99 146.452-67.99 105.87 0 192 86.13 192 192v64c0 136.76-53.258 265.334-149.96 362.040zM512 192c-70.58 0-128 57.42-128 128s57.42 128 128 128c70.58 0 128-57.42 128-128s-57.42-128-128-128z" />
<glyph unicode="&#xe90a;" glyph-name="play2" data-tags="play" d="M192 704l640-384-640-384z" />
<glyph unicode="&#xe90b;" glyph-name="yahoo" data-tags="yahoo" d="M568.2 243v0c112.6 197.6 298.6 520 349.6 589-22.4-15-56.8-22.6-88.4-29.8l-47.8 29.8c-38.4-71.6-180-303-270.2-451.2-91.4 151.4-199.6 326.2-270.2 451.2-56-12-79.2-12.6-135 0v0 0c0 0 0 0 0 0v0c110.8-166.8 288.2-484.6 348.6-589v0l-8.2-435 64.8 29.8v0.8l64.8-30.6-8 435z" />
<glyph unicode="&#xe90c;" glyph-name="pinterest" data-tags="pinterest" d="M512 832c-282.4 0-512-229.6-512-512s229.6-512 512-512 512 229.6 512 512-229.6 512-512 512zM512-123.6c-45.8 0-89.8 7-131.4 19.8 18 29.4 45.2 77.8 55.2 116.2 5.4 20.8 27.6 105.4 27.6 105.4 14.4-27.6 56.8-51 101.6-51 133.8 0 230.2 123 230.2 276 0 146.6-119.6 256.2-273.4 256.2-191.4 0-293-128.6-293-268.4 0-65 34.6-146 90-171.8 8.4-4 12.8-2.2 14.8 6 1.4 6.2 9 36.2 12.4 50.4 1 4.4 0.6 8.4-3 12.8-18.4 22.2-33 63.2-33 101.2 0 97.8 74 192.6 200.2 192.6 109 0 185.2-74.2 185.2-180.4 0-120-60.6-203.2-139.4-203.2-43.6 0-76.2 36-65.6 80.2 12.6 52.8 36.8 109.6 36.8 147.6 0 34-18.2 62.4-56.2 62.4-44.6 0-80.2-46-80.2-107.8 0-39.2 13.2-65.8 13.2-65.8s-44-185.8-52-220.4c-9-38.4-5.4-92.2-1.6-127.2-165 64.4-282 224.8-282 412.8 0 245 198.6 443.6 443.6 443.6s443.6-198.6 443.6-443.6c0-245-198.6-443.6-443.6-443.6z" />
<glyph unicode="&#xe90d;" glyph-name="instagram" data-tags="instagram" d="M928 832h-832c-52.8 0-96-43.2-96-96v-832c0-52.8 43.2-96 96-96h832c52.8 0 96 43.2 96 96v832c0 52.8-43.2 96-96 96zM704 672c0 17.6 14.4 32 32 32h128c17.6 0 32-14.4 32-32v-128c0-17.6-14.4-32-32-32h-128c-17.6 0-32 14.4-32 32v128zM512 512c106 0 192-86 192-192s-86-192-192-192c-106 0-192 86-192 192s86 192 192 192zM896-32v0c0-17.6-14.4-32-32-32h-704c-17.6 0-32 14.4-32 32v0 416h70.4c-4.2-20.6-6.4-42-6.4-64 0-176.8 143.2-320 320-320s320 143.2 320 320c0 22-2.2 43.4-6.4 64h70.4v-416z" />
<glyph unicode="&#xe90e;" glyph-name="google-plus" data-tags="google-plus" d="M325.8 374.6v-111.8h184.8c-7.4-48-55.8-140.6-184.8-140.6-111.2 0-202 92.2-202 205.8s90.8 205.8 202 205.8c63.4 0 105.6-27 129.8-50.2l88.4 85.2c-56.8 53-130.4 85.2-218.2 85.2-180.2-0.2-325.8-145.8-325.8-326s145.6-325.8 325.8-325.8c188 0 312.8 132.2 312.8 318.4 0 21.4-2.4 37.8-5.2 54h-307.6zM1024 384h-96v96h-96v-96h-96v-96h96v-96h96v96h96z" />
<glyph unicode="&#xe90f;" glyph-name="twitter" data-tags="twitter" d="M1024 605.6c-37.6-16.8-78.2-28-120.6-33 43.4 26 76.6 67.2 92.4 116.2-40.6-24-85.6-41.6-133.4-51-38.4 40.8-93 66.2-153.4 66.2-116 0-210-94-210-210 0-16.4 1.8-32.4 5.4-47.8-174.6 8.8-329.4 92.4-433 219.6-18-31-28.4-67.2-28.4-105.6 0-72.8 37-137.2 93.4-174.8-34.4 1-66.8 10.6-95.2 26.2 0-0.8 0-1.8 0-2.6 0-101.8 72.4-186.8 168.6-206-17.6-4.8-36.2-7.4-55.4-7.4-13.6 0-26.6 1.4-39.6 3.8 26.8-83.4 104.4-144.2 196.2-146-72-56.4-162.4-90-261-90-17 0-33.6 1-50.2 3 93.2-59.8 203.6-94.4 322.2-94.4 386.4 0 597.8 320.2 597.8 597.8 0 9.2-0.2 18.2-0.6 27.2 41 29.4 76.6 66.4 104.8 108.6z" />
<glyph unicode="&#xe910;" glyph-name="facebook" data-tags="facebook" d="M608 640h160v192h-160c-123.514 0-224-100.486-224-224v-96h-128v-192h128v-512h192v512h160l32 192h-192v96c0 17.346 14.654 32 32 32z" />
<glyph unicode="&#xe911;" glyph-name="home" data-tags="home" d="M1024 241.556l-512 397.426-512-397.428v162.038l512 397.426 512-397.428zM896 256v-384h-256v256h-256v-256h-256v384l384 288z" />
<glyph unicode="&#xe912;" glyph-name="envelop" data-tags="envelop" d="M960 704h-896c-35.2 0-64-28.8-64-64v-640c0-35.2 28.8-64 64-64h896c35.2 0 64 28.8 64 64v640c0 35.2-28.8 64-64 64zM896 576v-46l-384-226.286-384 226.286v46h768zM128 64v354.572l384-226.286 384 226.286v-354.572h-768z" />
<glyph unicode="&#xe913;" glyph-name="plus" data-tags="plus" d="M960 384h-384v384h-128v-384h-384v-128h384v-384h128v384h384z" />
<glyph unicode="&#xe914;" glyph-name="whatsapp" data-tags="whatsapp" d="M873 683.2c-95.8 96-223.2 148.8-359 148.8-279.6 0-507.2-227.6-507.2-507.4 0-89.4 23.4-176.8 67.8-253.6l-72-263 269 70.6c74.2-40.4 157.6-61.8 242.4-61.8h0.2c0 0 0 0 0 0 279.6 0 507.4 227.6 507.4 507.4 0 135.6-52.8 263-148.6 359zM514.2-97.6v0c-75.8 0-150 20.4-214.8 58.8l-15.4 9.2-159.6-41.8 42.6 155.6-10 16c-42.4 67-64.6 144.6-64.6 224.4 0 232.6 189.2 421.8 422 421.8 112.6 0 218.6-44 298.2-123.6 79.6-79.8 123.4-185.6 123.4-298.4-0.2-232.8-189.4-422-421.8-422zM745.4 218.4c-12.6 6.4-75 37-86.6 41.2s-20 6.4-28.6-6.4c-8.4-12.6-32.8-41.2-40.2-49.8-7.4-8.4-14.8-9.6-27.4-3.2s-53.6 19.8-102 63c-37.6 33.6-63.2 75.2-70.6 87.8s-0.8 19.6 5.6 25.8c5.8 5.6 12.6 14.8 19 22.2s8.4 12.6 12.6 21.2c4.2 8.4 2.2 15.8-1 22.2s-28.6 68.8-39 94.2c-10.2 24.8-20.8 21.4-28.6 21.8-7.4 0.4-15.8 0.4-24.2 0.4s-22.2-3.2-33.8-15.8c-11.6-12.6-44.4-43.4-44.4-105.8s45.4-122.6 51.8-131.2c6.4-8.4 89.4-136.6 216.6-191.4 30.2-13 53.8-20.8 72.2-26.8 30.4-9.6 58-8.2 79.8-5 24.4 3.6 75 30.6 85.6 60.2s10.6 55 7.4 60.2c-3 5.6-11.4 8.8-24.2 15.2z" />
<glyph unicode="&#xe915;" glyph-name="snapchat" data-tags="snapchat" horiz-adv-x="951" d="M484.571 758.857c102.857 1.143 188-56.571 230.857-149.143 13.143-28 15.429-71.429 15.429-102.286 0-36.571-2.857-72.571-5.143-109.143 4.571-2.286 10.857-4 16-4 20.571 0 37.714 15.429 58.286 15.429 19.429 0 47.429-13.714 47.429-36.571 0-54.857-114.857-44.571-114.857-92.571 0-8.571 3.429-16.571 6.857-24.571 27.429-60 79.429-117.714 141.143-143.429 14.857-6.286 29.714-9.714 45.714-13.143 10.286-2.286 16-9.714 16-20 0-38.857-98.857-54.857-125.143-58.857-11.429-17.714-2.857-59.429-33.143-59.429-23.429 0-46.857 7.429-72 7.429-12 0-24-0.571-35.429-2.857-68-11.429-90.857-84.571-202.286-84.571-107.429 0-133.143 73.143-199.429 84.571-12 2.286-24 2.857-36 2.857-25.714 0-50.286-8.571-70.857-8.571-32 0-22.286 42.286-34.286 60.571-26.286 4-125.143 20-125.143 58.857 0 10.286 5.714 17.714 16 20 16 3.429 30.857 6.857 45.714 13.143 61.143 25.143 114.286 83.429 141.143 143.429 3.429 8 6.857 16 6.857 24.571 0 48-115.429 38.857-115.429 92 0 22.286 26.286 36.571 46.286 36.571 17.714 0 35.429-14.857 57.714-14.857 6.286 0 12.571 1.143 18.286 4-2.286 36-5.143 72-5.143 108.571 0 30.857 2.286 74.857 15.429 102.857 50.286 108.571 135.429 148 249.143 149.143z" />
<glyph unicode="&#xe916;" glyph-name="apple" data-tags="apple" d="M791.498 287.908c-1.294 129.682 105.758 191.876 110.542 194.966-60.152 88.020-153.85 100.078-187.242 101.472-79.742 8.074-155.596-46.948-196.066-46.948-40.368 0-102.818 45.754-168.952 44.552-86.916-1.292-167.058-50.538-211.812-128.38-90.304-156.698-23.126-388.84 64.89-515.926 43.008-62.204 94.292-132.076 161.626-129.58 64.842 2.588 89.362 41.958 167.756 41.958s100.428-41.958 169.050-40.67c69.774 1.296 113.982 63.398 156.692 125.796 49.39 72.168 69.726 142.038 70.924 145.626-1.548 0.706-136.060 52.236-137.408 207.134zM662.562 668.478c35.738 43.358 59.86 103.512 53.28 163.522-51.478-2.096-113.878-34.29-150.81-77.55-33.142-38.376-62.148-99.626-54.374-158.436 57.466-4.484 116.128 29.204 151.904 72.464z" />
<glyph unicode="&#xe917;" glyph-name="rss" data-tags="rss" d="M136.294 81.070c-75.196 0-136.292-61.334-136.292-136.076 0-75.154 61.1-135.802 136.292-135.802 75.466 0 136.494 60.648 136.494 135.802-0.002 74.742-61.024 136.076-136.494 136.076zM0.156 484.070v-196.258c127.784 0 247.958-49.972 338.458-140.512 90.384-90.318 140.282-211.036 140.282-339.3h197.122c-0.002 372.82-303.282 676.070-675.862 676.070zM0.388 832v-196.356c455.782 0 826.756-371.334 826.756-827.644h196.856c0 564.47-459.254 1024-1023.612 1024z" />
<glyph unicode="&#xe918;" glyph-name="flickr" data-tags="flickr" d="M0 288c0 123.712 100.288 224 224 224s224-100.288 224-224c0-123.712-100.288-224-224-224s-224 100.288-224 224zM576 288c0 123.712 100.288 224 224 224s224-100.288 224-224c0-123.712-100.288-224-224-224s-224 100.288-224 224z" />
<glyph unicode="&#xe919;" glyph-name="telegram" data-tags="telegram" d="M512 832c-282.8 0-512-229.2-512-512s229.2-512 512-512 512 229.2 512 512-229.2 512-512 512zM763.6 481l-84-395.8c-5.8-28.2-22.8-34.8-46.4-21.8l-128 94.6-61.4-59.8c-7.2-7-12.8-12.8-25.6-12.8-16.6 0-13.8 6.2-19.4 22l-43.6 143.2-126.6 39.4c-27.4 8.4-27.6 27.2 6.2 40.6l493.2 190.4c22.4 10.2 44.2-5.4 35.6-40z" />
<glyph unicode="&#xe91a;" glyph-name="search" data-tags="search, magnifier, magnifying-glass, inspect, find" d="M992.262-39.396l-242.552 206.294c-25.074 22.566-51.89 32.926-73.552 31.926 57.256 67.068 91.842 154.078 91.842 249.176 0 212.078-171.922 384-384 384-212.076 0-384-171.922-384-384s171.922-384 384-384c95.098 0 182.108 34.586 249.176 91.844-1-21.662 9.36-48.478 31.926-73.552l206.294-242.552c35.322-39.246 93.022-42.554 128.22-7.356s31.892 92.898-7.354 128.22zM384 192c-141.384 0-256 114.616-256 256s114.616 256 256 256 256-114.616 256-256-114.614-256-256-256z" />
<glyph unicode="&#xe91b;" glyph-name="arrow-up2" data-tags="arrow-up" d="M800 192l-288 288-288-288h576z" />
<glyph unicode="&#xe91c;" glyph-name="circle" data-tags="circle" d="M0 320c0 282.77 229.23 512 512 512s512-229.23 512-512c0-282.77-229.23-512-512-512s-512 229.23-512 512z" />
<glyph unicode="&#xe91d;" glyph-name="arrow-right2" data-tags="arrow-right" d="M384 32l288 288-288 288v-576z" />
<glyph unicode="&#xe91e;" glyph-name="logout" data-tags="logout" d="M704 0l288 288-288 288v-192h-448v-192h448v-192zM64 768h704v-128h-640v-704h640v-128h-704c-35.346 0-64 28.654-64 64v832c0 35.346 28.654 64 64 64z" />
<glyph unicode="&#xe91f;" glyph-name="login" data-tags="login" d="M448 0l288 288-288 288v-192h-448v-192h448v-192zM960-192h-704v128h640v704h-640v128h704c35.346 0 64-28.654 64-64v-832c0-35.346-28.654-64-64-64z" />
<glyph unicode="&#xe920;" glyph-name="arrow-left2" data-tags="arrow-left" d="M640 608l-288-288 288-288v576z" />
<glyph unicode="&#xe921;" glyph-name="arrow-down2" data-tags="arrow-down" d="M224 448l288-288 288 288h-576z" />
<glyph unicode="&#xe922;" glyph-name="play" data-tags="play" d="M512 832c-282.77 0-512-229.23-512-512s229.23-512 512-512 512 229.23 512 512-229.23 512-512 512zM512-96c-229.75 0-416 186.25-416 416s186.25 416 416 416 416-186.25 416-416-186.25-416-416-416zM384 544l384-224-384-224z" />
</font>
</defs>
</svg>
